<?xml version="1.0" encoding="utf-8"?>
<!-- Generator: Adobe Illustrator 25.1.0, SVG Export Plug-In . SVG Version: 6.00 Build 0)  -->
<svg version="1.1" id="Layer_1" xmlns="http://www.w3.org/2000/svg" xmlns:xlink="http://www.w3.org/1999/xlink" x="0px" y="0px"
	 viewBox="0 0 64 80" style="enable-background:new 0 0 64 80;" xml:space="preserve">
<circle cx="32.9" cy="24.7" r="6"/>
<path d="M38.7,5.1c-0.3-0.9-1-1.6-1.8-2c-0.6-0.2-1.2-0.2-1.8,0c-0.9,0.4-1.5,1.1-1.8,2c-0.3-0.9-1-1.6-1.8-2
	c-0.6-0.2-1.2-0.2-1.8,0c-0.9,0.4-1.5,1.1-1.8,2c-0.5,1.3-0.5,2.7,0,3.9c1.1,3.7,4.7,5.5,5.5,5.9c0.9-0.4,4.5-2.2,5.5-5.9
	C39.2,7.8,39.2,6.4,38.7,5.1z"/>
<path d="M17.8,29.7c5.3,9.2,6.7,20.1,4.2,30.3v0h22v0c-2.6-10.3-1.1-21.1,4.2-30.3l6.6-11.6c0.6-1.1,0.2-2.5-0.8-3.1
	c-1.1-0.6-2.4-0.3-3.1,0.8L43.6,28c-3.5,5.9-11.1,7.8-17,4.2c-1.7-1-3.2-2.5-4.2-4.2l-7.3-12.2c-0.6-1.1-2-1.4-3.1-0.8
	c-1.1,0.6-1.4,2-0.8,3.1L17.8,29.7z"/>
</svg>
